# xmcd
#
# Track frame offsets: 
#        150
#        16205
#        36713
#        52358
#        66493
#        109000
#        137290
#        164892
#        177898
#        213703
#        231190
#
# Disc length: 3818 seconds
#
# Revision: 0
# Processed by: cddbd v1.4PL0 Copyright (c) Steve Scherf et al.
# Submitted via: ExactAudioCopy v0.90a11
#
DISCID=ab0ee80b
DTITLE=Frankie Starr - B-Sides
DYEAR=1900
DGENRE=
TTITLE0=I Do The Job (Dixon)
TTITLE1=I Ain't Superstitious (Dixon)
TTITLE2=Got That Feelin' (Collins)
TTITLE3=Shame and a Sin (Starr, Avsec)
TTITLE4=Cold Shot (Vaughan)
TTITLE5=Master Charge (Collins)
TTITLE6=Comin' Home Baby (Hagen)
TTITLE7=Boogie Man (Blackwell/Russell)
TTITLE8=Who Knows? (Hendrix)
TTITLE9=Rosalee (Star, Avsec)
TTITLE10=Watermelon Man (Hancock)
EXTD=
EXTT0=
EXTT1=
EXTT2=
EXTT3=
EXTT4=
EXTT5=
EXTT6=
EXTT7=
EXTT8=
EXTT9=
EXTT10=
PLAYORDER=
